<?xml version="1.0" standalone="no"?>
<!DOCTYPE svg PUBLIC "-//W3C//DTD SVG 20010904//EN"
 "http://www.w3.org/TR/2001/REC-SVG-20010904/DTD/svg10.dtd">
<svg version="1.0" xmlns="http://www.w3.org/2000/svg"
 width="745.000000pt" height="745.000000pt" viewBox="0 0 745.000000 745.000000"
 preserveAspectRatio="xMidYMid meet">

<g transform="translate(0.000000,745.000000) scale(0.100000,-0.100000)"
fill="#000000" stroke="none">
<path d="M3637 6906 c-3 -8 -29 -16 -64 -21 -32 -4 -76 -13 -98 -20 -24 -8
-83 -13 -145 -13 -74 0 -118 -4 -149 -16 -24 -9 -67 -16 -97 -16 -29 0 -56 -5
-59 -10 -4 -6 -14 -10 -23 -9 -51 5 -81 -3 -106 -27 -29 -30 -33 -44 -11 -44
9 0 12 -6 8 -16 -3 -8 -11 -13 -19 -10 -8 3 -14 -4 -16 -17 -2 -14 -9 -21 -19
-19 -9 1 -22 -5 -29 -13 -7 -8 -20 -15 -29 -15 -10 0 -27 -9 -39 -20 -12 -11
-28 -20 -37 -20 -8 0 -15 -4 -15 -8 0 -5 -12 -14 -26 -21 -15 -6 -24 -14 -21
-18 4 -3 12 -1 20 5 7 6 18 7 26 3 8 -6 -3 -18 -37 -40 -28 -18 -53 -39 -56
-47 -3 -8 -23 -22 -43 -31 -21 -8 -51 -26 -66 -39 -16 -13 -35 -24 -42 -24
-17 0 -85 -63 -85 -79 0 -18 21 -13 27 7 5 21 42 47 51 37 4 -4 -3 -15 -15
-25 -13 -10 -23 -25 -23 -33 0 -8 -9 -17 -20 -20 -32 -8 -24 -28 8 -21 l27 7
-25 -29 c-13 -16 -53 -57 -87 -92 -35 -34 -63 -68 -63 -76 0 -7 -6 -19 -14
-25 -7 -6 -11 -21 -9 -34 3 -14 -7 -37 -29 -66 -73 -98 -105 -170 -53 -121 40
37 40 16 1 -28 -38 -42 -65 -120 -33 -93 14 11 17 11 17 -1 0 -7 -8 -24 -17
-38 -16 -22 -16 -23 0 -17 18 7 25 -17 7 -28 -14 -9 -53 -96 -55 -126 -2 -14
-8 -44 -16 -65 -7 -21 -12 -63 -10 -92 1 -30 -3 -59 -9 -67 -6 -7 -13 -75 -16
-156 -2 -79 -6 -153 -9 -164 -2 -12 2 -32 9 -46 10 -20 11 -31 2 -45 -6 -10
-14 -95 -17 -189 -4 -93 -10 -200 -14 -236 -5 -45 -4 -69 4 -73 18 -12 13 -33
-17 -68 -41 -48 -49 -78 -63 -220 -14 -156 -9 -253 20 -336 12 -35 24 -84 28
-109 l6 -46 -21 21 c-30 30 -42 28 -42 -7 0 -23 6 -30 33 -37 l32 -10 7 -102
c4 -56 19 -142 33 -191 14 -50 25 -97 25 -106 0 -21 33 -68 82 -117 66 -66 81
-120 29 -103 -53 17 -10 -57 53 -90 11 -5 21 -16 24 -22 6 -20 -36 -15 -47 5
-7 13 -21 17 -55 15 -30 -1 -46 3 -50 13 -3 8 -11 14 -18 14 -19 1 -58 36 -58
53 0 8 -11 18 -25 21 -16 4 -25 13 -25 26 0 10 -3 21 -8 23 -14 9 -62 -5 -62
-18 0 -16 28 -28 42 -18 7 3 8 1 4 -6 -4 -6 -2 -18 4 -26 6 -8 9 -19 5 -25 -7
-12 -38 -13 -49 -2 -11 10 -96 11 -96 1 0 -5 11 -9 24 -9 13 0 26 -4 28 -9 2
-5 25 -15 52 -23 44 -12 51 -17 59 -48 6 -23 5 -41 -2 -53 -14 -22 14 -71 36
-63 8 4 21 6 29 6 8 0 11 6 7 17 -4 10 -2 14 4 10 5 -3 10 -23 11 -44 2 -45
22 -63 68 -63 33 0 48 -12 49 -40 0 -10 8 -14 23 -12 26 4 28 -6 5 -24 -25
-18 -50 -17 -61 3 -6 10 -16 14 -26 10 -19 -7 -22 -27 -3 -27 13 -1 57 -34 57
-45 0 -9 -73 6 -88 18 -21 16 -28 -2 -11 -31 12 -21 23 -27 51 -28 20 -1 44
-9 54 -18 16 -16 18 -16 26 -2 5 9 19 16 31 16 12 0 45 12 74 27 29 15 55 24
58 21 15 -15 32 -119 25 -155 -7 -34 -9 -36 -15 -15 -6 19 -13 22 -31 18 -17
-5 -24 -2 -24 8 0 9 -9 20 -21 26 -17 10 -21 8 -26 -9 -3 -11 -9 -18 -15 -15
-5 3 -29 -4 -53 -15 -25 -12 -49 -21 -55 -21 -14 0 -12 -9 5 -27 9 -8 13 -18
10 -22 -4 -3 -12 1 -18 10 -7 9 -27 19 -46 22 -31 7 -33 6 -27 -17 4 -18 0
-28 -19 -40 -13 -9 -26 -12 -29 -7 -8 12 -46 2 -47 -13 -1 -6 -2 -20 -3 -31
-1 -15 -10 -21 -36 -25 -23 -3 -38 -12 -45 -27 -5 -12 -27 -32 -49 -44 -54
-31 -116 -88 -116 -108 0 -9 7 -27 16 -39 15 -21 15 -25 0 -41 -9 -10 -16 -21
-16 -24 0 -10 45 -8 56 2 5 6 29 11 54 13 35 2 47 8 56 27 11 21 31 36 74 58
8 4 37 19 63 35 51 30 98 41 62 14 -19 -14 -19 -15 0 -36 l20 -23 -25 8 c-28
8 -25 8 -59 6 -16 -1 -21 -5 -17 -16 3 -8 1 -15 -4 -15 -18 0 -10 -19 10 -25
11 -3 20 -10 20 -15 0 -5 -6 -7 -13 -4 -16 6 -67 -12 -67 -24 0 -16 81 -33
145 -30 35 1 67 -1 72 -5 18 -18 -29 -27 -129 -24 -60 2 -108 -1 -108 -5 0 -5
-12 -20 -26 -33 l-26 -24 35 -6 c19 -4 52 -2 73 4 46 13 104 14 104 3 0 -9
-70 -37 -86 -34 -5 1 -20 -7 -32 -18 -12 -12 -22 -16 -22 -10 0 13 -47 13 -55
0 -3 -6 5 -14 19 -20 32 -12 32 -13 -1 -56 -20 -27 -23 -38 -14 -47 9 -9 16
-8 29 8 9 12 28 26 42 32 32 15 122 33 132 27 13 -9 9 -34 -7 -40 -19 -8 -20
-24 -1 -24 12 0 15 -35 7 -70 -1 -2 -8 6 -18 19 -13 20 -18 22 -27 10 -14 -19
-62 -49 -77 -49 -7 0 -18 8 -25 18 -11 14 -15 15 -23 3 -12 -19 -28 -6 -36 29
-7 30 -19 38 -30 20 -12 -19 -34 -10 -37 17 -2 14 -9 28 -16 31 -10 3 -11 -8
-6 -50 7 -50 6 -52 -10 -39 -14 12 -19 12 -26 2 -5 -10 -12 -6 -26 14 -11 15
-30 38 -43 51 -19 20 -21 26 -11 39 11 13 9 15 -13 15 -14 0 -29 5 -32 10 -4
6 -16 10 -28 8 -18 -3 -22 2 -20 25 1 15 -2 27 -8 27 -5 0 -9 -18 -9 -40 0
-27 4 -40 14 -40 14 0 24 -33 31 -98 1 -18 11 -39 21 -46 10 -8 15 -20 11 -30
-4 -9 -1 -16 6 -16 7 0 17 -10 22 -22 6 -13 15 -23 20 -23 17 0 36 -16 34 -28
-3 -28 3 -35 36 -40 41 -7 95 -53 95 -81 0 -16 3 -17 12 -8 17 17 31 15 24 -3
-3 -9 0 -15 9 -15 7 0 20 -6 27 -12 7 -7 30 -22 50 -32 38 -19 42 -36 7 -36
-13 0 -19 -7 -19 -21 0 -18 -2 -20 -16 -8 -13 10 -17 10 -24 0 -11 -18 -30 -5
-30 20 0 18 4 20 30 14 23 -5 30 -3 30 9 0 10 -9 16 -21 16 -12 0 -28 8 -35
18 -8 10 -13 12 -14 5 0 -14 -30 -18 -30 -4 0 9 -33 23 -60 26 -38 4 -80 17
-86 27 -5 7 1 9 18 5 23 -6 24 -4 20 23 -4 29 -6 30 -38 24 -30 -5 -34 -4 -34
15 0 11 -4 21 -10 21 -13 0 -13 -3 2 -35 6 -14 15 -25 20 -25 4 0 8 -4 8 -10
0 -22 -24 -8 -76 45 -58 58 -88 69 -97 35 -5 -21 -27 -28 -27 -10 0 14 -90 52
-107 46 -7 -3 -29 2 -49 10 -20 8 -41 13 -47 11 -11 -4 2 -11 41 -23 19 -5 14
-34 -5 -34 -15 0 -16 -2 -3 -10 8 -5 31 -10 51 -10 57 0 80 -51 32 -66 -10 -3
-27 -10 -39 -16 -11 -5 -39 -11 -60 -12 -21 -1 -45 -5 -52 -10 -18 -11 -42 13
-46 45 -2 13 -6 31 -9 39 -3 8 -8 36 -11 62 -4 38 -2 49 12 57 16 9 16 11 -1
40 -21 36 -11 45 40 39 22 -2 28 -8 27 -27 -1 -23 0 -23 70 -15 91 10 106 10
134 0 19 -6 22 -4 22 19 0 14 6 40 13 58 8 18 17 43 20 58 6 23 4 25 -28 25
-24 0 -35 -5 -38 -18 -3 -12 -15 -18 -31 -18 -31 0 -44 24 -25 46 12 15 7 16
-50 11 -34 -2 -68 -10 -74 -16 -18 -18 -49 -13 -46 7 3 32 -1 39 -23 38 -21
-1 -24 5 -29 64 -4 36 -7 206 -8 378 -1 310 -1 312 -22 312 -20 0 -21 -3 -15
-102 3 -57 9 -214 12 -349 8 -303 6 -309 -93 -309 -44 0 -54 4 -64 22 l-12 23
-10 -23 c-12 -26 -53 -30 -83 -8 -10 8 -28 13 -39 10 -25 -5 -35 2 -57 42 -12
22 -14 34 -7 41 8 8 8 17 0 31 -7 12 -11 178 -12 473 -3 538 -16 938 -31 956
-17 21 -28 15 -29 -14 0 -16 -2 -167 -5 -336 -4 -224 -2 -384 10 -580 21 -359
24 -553 8 -569 -17 -17 -15 -48 4 -69 10 -11 18 -44 21 -83 4 -42 11 -70 21
-78 14 -12 15 -5 9 58 -8 84 -9 84 110 84 74 0 94 -9 68 -30 -19 -16 -19 -30
0 -30 8 0 15 4 15 9 0 5 14 14 31 21 22 10 36 10 52 2 12 -6 38 -13 57 -14 30
-3 35 -7 35 -28 0 -29 -28 -37 -157 -42 -49 -2 -88 -7 -88 -12 0 -5 -7 -17
-16 -27 -14 -16 -14 -19 8 -33 12 -8 35 -18 51 -21 23 -6 27 -4 27 13 0 34 38
49 103 41 32 -4 63 -11 69 -17 5 -5 9 -34 8 -63 -2 -73 -2 -75 6 -151 8 -78
-2 -98 -47 -98 -17 0 -29 -5 -29 -13 0 -16 173 -187 189 -187 6 0 15 10 20 22
7 19 3 26 -19 40 -29 17 -60 68 -60 98 0 20 37 30 105 30 31 0 46 5 56 20 10
14 28 20 67 22 39 2 57 8 63 21 13 24 49 22 49 -2 0 -11 -5 -23 -10 -26 -6 -4
-9 -19 -8 -33 3 -26 1 -27 -42 -28 -74 0 -141 -15 -148 -32 -3 -9 0 -18 6 -20
7 -2 10 -13 6 -28 -5 -21 -3 -24 21 -24 46 0 123 31 140 56 8 13 20 24 26 24
8 0 7 -5 -1 -15 -16 -19 -7 -19 30 0 17 9 30 11 30 6 0 -5 -7 -11 -15 -15 -8
-3 -15 -12 -15 -21 0 -8 -4 -15 -10 -15 -14 0 -13 -33 2 -48 9 -9 8 -15 -8
-28 -13 -10 -15 -17 -7 -20 9 -4 11 -19 6 -50 -5 -35 -3 -44 10 -44 16 0 30
-57 15 -66 -5 -4 -7 -12 -4 -20 4 -9 -2 -14 -15 -14 -11 0 -18 -4 -14 -9 8
-14 245 -169 340 -223 233 -133 466 -236 718 -317 127 -41 318 -91 348 -91 19
0 44 53 36 75 -4 8 -2 17 4 21 7 4 6 10 -1 19 -6 7 -7 16 -2 19 11 7 6 182 -7
225 -8 24 -7 38 0 48 9 10 8 13 -5 13 -9 0 -16 5 -16 10 0 6 5 10 11 10 5 0 7
5 3 11 -12 21 49 0 68 -22 24 -28 47 -109 55 -187 l6 -63 91 -45 c51 -24 95
-44 99 -44 10 0 42 -33 62 -63 20 -31 11 -77 -16 -77 -21 0 -109 57 -109 71 0
5 -5 9 -11 9 -6 0 -31 14 -56 31 -24 17 -48 27 -53 23 -4 -5 -10 -31 -13 -57
-4 -43 -2 -49 17 -56 48 -19 272 -43 437 -48 154 -5 183 -3 225 12 27 10 53
22 59 27 5 4 17 8 26 8 30 0 31 19 2 26 -15 4 -36 16 -48 26 -20 19 -20 19
-23 -1 -5 -31 -62 -28 -101 5 -38 31 -40 54 -6 54 34 0 32 20 -2 21 -17 1 -21
3 -10 6 27 7 20 22 -10 21 -16 0 -50 7 -76 16 -26 9 -55 16 -63 16 -10 0 -14
6 -10 15 4 10 -3 19 -18 25 -13 5 -27 14 -31 19 -3 6 -20 11 -36 11 -38 0 -65
14 -80 41 -10 20 -9 21 19 14 24 -5 33 -2 41 13 9 17 7 22 -17 31 -40 17 -70
35 -96 60 -12 11 -29 21 -37 21 -27 0 -68 25 -78 48 -6 12 -17 22 -25 22 -9 0
-30 13 -48 28 -57 49 -157 76 -184 49 -14 -14 -26 -7 -14 8 7 8 21 15 31 15
12 0 16 5 13 14 -8 20 14 30 32 15 8 -6 17 -9 21 -5 3 3 1 6 -5 6 -7 0 -12 5
-12 10 0 15 26 12 40 -5 7 -9 27 -22 44 -30 29 -14 166 -102 526 -338 l145
-96 90 43 c50 24 151 60 225 80 74 21 164 48 200 61 36 13 112 38 170 56 189
57 252 86 326 146 63 51 192 172 232 216 9 9 21 17 26 17 5 0 32 20 61 45 42
35 54 52 59 83 3 22 13 45 21 52 8 7 15 23 15 35 0 12 10 44 22 71 20 46 22
47 28 24 4 -14 12 -24 19 -22 9 2 9 -3 1 -18 -6 -11 -10 -28 -8 -38 2 -11 -5
-18 -19 -20 -13 -2 -23 -7 -23 -12 0 -14 40 -32 56 -26 23 9 17 -43 -11 -99
-14 -27 -46 -71 -72 -97 -26 -26 -45 -50 -42 -52 7 -8 104 37 114 53 26 41 75
165 75 189 0 16 4 32 9 37 12 14 22 121 22 240 -1 118 -3 145 -15 164 -5 7
-10 30 -11 50 -2 31 -12 80 -30 157 -3 12 -14 24 -26 27 -12 3 -20 13 -19 24
4 32 0 43 -13 43 -18 0 -47 32 -47 52 0 8 -9 25 -20 38 -11 13 -20 26 -20 29
0 3 -14 12 -31 20 -17 8 -39 27 -48 42 -9 16 -19 29 -23 29 -4 0 -9 -24 -12
-52 -10 -90 -11 -501 -2 -537 6 -24 5 -32 -3 -27 -7 5 -11 -5 -11 -28 0 -43
-19 -137 -31 -152 -5 -6 -6 -14 -2 -18 4 -3 -2 -13 -13 -20 -16 -12 -17 -18
-7 -34 10 -16 9 -23 -6 -36 -17 -16 -19 -15 -24 4 -7 27 -29 26 -25 -2 2 -16
-5 -26 -27 -37 -16 -9 -32 -17 -35 -19 -3 -2 3 -8 13 -14 17 -9 16 -12 -10
-34 -15 -13 -40 -24 -55 -24 -15 0 -31 -7 -36 -15 -5 -9 -29 -18 -62 -22 -53
-6 -53 -6 -32 -24 23 -18 31 -39 10 -22 -19 14 -98 4 -98 -12 0 -8 -14 -15
-32 -17 -39 -4 -51 -28 -14 -28 14 0 26 -4 26 -10 0 -15 -23 -12 -46 5 -10 8
-27 15 -38 15 -30 0 1 30 33 31 17 1 11 4 -19 10 -25 5 -58 6 -74 3 -30 -6
-30 1 1 38 8 9 10 19 5 22 -5 3 -7 17 -4 31 2 15 0 25 -7 25 -11 0 -15 -13
-12 -38 2 -15 -43 -33 -65 -25 -10 4 -14 14 -11 30 4 22 3 22 -13 8 -24 -22
-27 -20 -33 31 -6 59 1 88 18 74 18 -15 27 3 19 37 -7 25 -8 25 -15 8 -7 -19
-8 -19 -8 -1 -1 11 -8 27 -16 36 -23 25 -5 60 44 90 38 23 41 28 37 57 -3 25
-1 31 10 26 25 -9 59 6 71 32 14 30 4 32 -31 4 l-26 -20 0 43 c0 45 17 84 27
61 7 -18 34 -16 27 1 -3 9 3 20 15 28 12 7 21 19 21 26 0 7 8 12 18 10 16 -3
62 50 62 72 0 13 13 13 27 -1 20 -20 60 -2 72 32 6 17 9 35 6 39 -3 4 4 10 14
13 12 3 21 15 23 33 4 34 28 45 29 12 0 -21 1 -22 8 -3 10 26 2 55 -15 55 -8
0 -14 5 -14 10 0 6 10 8 23 5 14 -3 32 4 51 19 l28 24 -28 13 c-17 8 -30 24
-32 37 -4 27 14 29 23 2 9 -28 23 -16 31 25 3 20 12 35 20 35 8 0 14 7 14 15
0 10 -10 15 -31 15 -17 0 -28 4 -24 10 3 5 15 10 25 10 10 0 21 6 24 13 5 9 7
9 12 0 3 -7 9 -13 14 -13 16 0 -15 49 -35 55 -18 5 -16 8 16 28 20 12 34 27
32 33 -2 6 5 14 17 17 12 3 20 13 20 26 0 11 9 26 19 33 14 8 17 16 10 24 -6
7 -3 19 9 35 10 13 22 32 25 43 6 15 4 17 -13 13 -18 -5 -19 -3 -9 9 7 8 17
13 23 11 14 -5 38 19 34 35 -3 15 37 146 52 168 11 16 7 -266 -5 -355 -6 -48
-5 -51 22 -65 15 -8 41 -23 57 -34 17 -11 73 -42 125 -70 121 -62 251 -147
251 -163 0 -7 6 -13 14 -13 26 0 32 -30 41 -195 8 -139 7 -163 -5 -185 -6 -10
-10 -30 -10 -45 0 -27 -66 -200 -86 -225 -13 -17 -84 -148 -84 -155 0 -3 5 -5
10 -5 15 0 47 35 66 72 9 18 29 47 44 63 16 18 30 47 33 70 4 26 15 47 32 60
15 13 25 31 25 47 0 36 17 78 43 106 16 17 20 33 18 66 -2 32 2 45 13 49 9 4
13 13 10 21 -9 23 38 30 114 18 43 -7 70 -8 76 -2 6 6 8 10 5 10 -146 8 -165
12 -153 32 11 18 14 133 3 160 -8 19 -7 32 1 49 13 22 15 117 4 151 -3 10 -12
18 -20 18 -12 0 -14 13 -12 65 2 73 -6 88 -52 89 -24 1 -34 8 -48 36 -12 24
-25 36 -43 38 -19 2 -29 12 -38 37 -11 32 -38 50 -67 44 -24 -4 -31 3 -32 33
-1 41 -32 82 -65 86 -24 3 -27 8 -27 41 0 84 -38 129 -88 102 -12 -6 -23 -11
-25 -11 -3 0 -7 30 -9 66 -3 57 -8 70 -30 89 -15 13 -31 24 -36 26 -5 2 -13
18 -16 36 -7 29 -6 31 16 26 13 -4 38 -19 56 -35 18 -15 37 -28 42 -28 4 0 38
-39 75 -86 37 -47 77 -90 89 -96 13 -5 30 -22 39 -37 21 -35 182 -193 277
-271 41 -34 80 -67 85 -74 6 -6 43 -38 83 -70 40 -32 87 -77 104 -99 29 -39
98 -178 128 -257 8 -19 32 -69 55 -110 91 -164 154 -300 184 -395 17 -54 31
-108 31 -119 0 -17 7 -14 41 19 172 166 426 504 571 760 467 823 604 1795 382
2714 -50 205 -144 485 -199 589 -27 53 -55 84 -55 63 0 -6 -4 -11 -9 -11 -5 0
-8 8 -7 18 1 11 -5 16 -17 14 -15 -3 -17 1 -13 16 5 14 -1 24 -19 36 -28 18
-33 36 -10 36 8 0 15 3 15 6 0 12 -34 33 -52 34 -10 0 -18 7 -18 15 0 9 -7 18
-15 21 -23 9 -18 24 8 24 20 0 19 2 -8 16 -36 18 -49 31 -51 47 0 7 -2 19 -2
28 -1 11 -15 19 -39 24 -21 4 -44 11 -50 17 -14 11 -25 -6 -19 -32 6 -31 42
-80 58 -80 11 0 15 -5 12 -14 -3 -7 6 -21 20 -30 20 -12 26 -25 26 -51 0 -27
3 -33 15 -28 10 3 28 -8 50 -33 29 -33 34 -45 30 -77 -3 -38 -15 -64 -15 -36
-1 27 -35 55 -70 57 -19 2 -39 7 -44 12 -16 16 -36 11 -36 -7 -1 -17 -1 -17
-14 0 -7 9 -18 17 -24 17 -5 0 -12 7 -15 15 -4 8 -18 14 -34 13 -15 -1 -35 0
-43 3 -10 3 -14 -2 -12 -16 2 -16 -1 -14 -15 8 -10 15 -26 27 -36 27 -10 0
-28 7 -40 15 -13 8 -33 16 -45 18 -12 2 -25 6 -28 10 -14 14 -23 6 -26 -24
l-3 -31 -28 22 c-24 19 -31 21 -38 9 -14 -22 -11 -32 22 -72 33 -40 31 -71 -2
-41 -18 16 -19 16 -19 -4 0 -22 -10 -28 -24 -14 -4 4 -20 8 -34 8 -57 4 -105
24 -138 58 -46 48 -57 46 -49 -6 9 -52 15 -60 59 -77 19 -8 40 -25 48 -39 7
-14 30 -36 50 -49 39 -24 45 -37 29 -62 -7 -11 1 -25 30 -53 21 -21 42 -38 46
-38 3 0 15 -8 25 -17 17 -15 21 -15 30 -3 8 13 9 12 5 -1 -3 -9 0 -22 6 -28 8
-8 -3 -11 -42 -11 -48 0 -52 2 -46 20 5 16 2 20 -19 20 -14 0 -28 5 -31 10 -7
12 -45 14 -45 2 0 -12 23 -32 37 -32 7 0 22 -9 33 -20 11 -11 26 -20 34 -20
19 0 78 -59 70 -71 -10 -16 -72 -10 -83 9 -9 14 -12 14 -19 4 -19 -29 -162 72
-162 114 0 18 -15 18 -33 0 -10 -11 -17 -12 -25 -4 -15 15 -43 -8 -35 -29 4
-9 -1 -19 -11 -25 -9 -5 -14 -13 -11 -19 10 -15 22 -10 28 12 4 16 11 19 26
14 15 -5 21 -2 21 9 0 21 19 20 27 -1 9 -24 65 -72 84 -73 9 0 22 -7 29 -15 7
-8 22 -15 33 -15 16 0 18 -3 9 -12 -8 -8 -15 -8 -26 2 -9 7 -23 10 -31 6 -20
-7 -19 -42 1 -50 11 -4 15 -14 12 -31 -6 -27 1 -32 19 -14 16 16 51 -6 59 -37
8 -30 -2 -42 -18 -26 -20 20 -76 15 -88 -8 -10 -18 -8 -19 15 -10 20 8 30 5
50 -12 37 -32 32 -51 -22 -70 -45 -16 -49 -16 -78 0 -16 10 -30 26 -30 37 0
26 -21 30 -28 5 -7 -26 -22 -25 -50 3 -13 12 -35 28 -50 34 -15 7 -30 21 -34
30 -4 10 -17 35 -31 55 -13 20 -21 42 -17 48 4 6 1 17 -5 25 -10 12 -10 18 0
30 7 8 8 15 3 15 -6 0 -9 18 -8 40 1 22 -1 40 -5 40 -4 0 -10 16 -13 35 -6 37
16 95 36 95 7 0 4 7 -6 14 -17 13 -17 15 3 29 12 8 31 12 42 9 14 -3 19 -1 14
6 -4 7 -16 12 -26 12 -16 0 -18 5 -13 30 5 25 2 30 -14 30 -10 0 -24 5 -31 12
-17 17 -15 41 2 35 19 -8 28 3 16 18 -7 8 -7 21 -1 38 8 20 6 28 -6 38 -8 7
-19 24 -24 37 -10 27 -29 21 -29 -9 0 -11 -4 -18 -9 -15 -12 8 -20 55 -10 62
15 9 10 44 -6 44 -8 0 -15 7 -15 15 0 8 7 15 15 15 8 0 14 3 13 8 -3 18 16 42
34 42 19 0 19 2 -6 27 -15 14 -24 33 -21 41 3 7 -2 20 -10 28 -17 18 -20 34
-5 34 22 0 70 -31 70 -45 0 -21 9 -19 31 8 27 32 25 51 -5 43 -14 -3 -28 -2
-31 4 -3 5 -15 10 -25 10 -18 0 -50 34 -50 53 0 5 9 6 19 2 16 -5 20 -1 19 17
-1 13 -8 31 -16 40 -15 19 -9 38 14 38 17 0 18 6 4 23 -6 7 -19 23 -30 37 -17
21 -21 23 -30 10 -5 -8 -10 -32 -10 -52 0 -43 -18 -88 -35 -88 -6 0 -18 16
-25 35 -10 27 -19 35 -34 33 -23 -4 -34 -28 -12 -28 9 0 18 -12 22 -27 3 -16
9 -39 13 -53 5 -14 5 -34 1 -45 -7 -18 -8 -19 -15 -3 -9 24 -25 13 -25 -17 0
-22 -17 -35 -46 -35 -8 0 -21 15 -29 33 -7 18 -23 41 -34 51 -25 23 -27 44 -5
53 22 8 -4 25 -28 17 -17 -5 -38 22 -31 42 2 5 -8 21 -22 34 -20 19 -25 20
-25 7 0 -9 5 -19 10 -22 6 -3 10 -20 10 -36 0 -39 26 -89 46 -89 11 0 13 -6 9
-20 -5 -16 -2 -20 14 -20 23 0 28 -15 10 -26 -6 -3 -22 6 -36 20 -15 16 -31
25 -40 22 -8 -3 -19 -6 -24 -6 -17 0 -9 -29 15 -57 22 -25 27 -26 45 -15 25
15 51 16 51 2 0 -5 -7 -10 -15 -10 -8 0 -15 -4 -15 -8 0 -15 22 -30 36 -25 17
6 69 -43 55 -51 -6 -4 -8 -12 -6 -19 2 -7 6 -24 9 -39 5 -20 13 -28 28 -28 17
0 19 -3 10 -12 -8 -8 -15 -8 -26 2 -9 7 -23 9 -32 6 -13 -5 -15 -2 -11 16 5
21 2 23 -28 24 -40 1 -43 -6 -15 -31 12 -10 19 -24 16 -31 -2 -6 1 -17 7 -23
7 -7 12 -17 12 -24 0 -7 8 -11 18 -11 9 1 17 -4 17 -11 0 -7 8 -12 17 -11 11
0 19 -7 21 -21 2 -13 14 -25 33 -32 28 -9 34 -22 30 -63 -2 -11 8 -20 26 -24
30 -7 63 -36 63 -55 0 -7 -7 -8 -17 -4 -36 13 -73 17 -73 7 0 -5 7 -12 15 -16
8 -3 15 -12 15 -20 0 -8 9 -18 20 -21 22 -7 26 -20 10 -30 -18 -11 -11 -25 12
-22 15 1 23 -4 26 -17 3 -16 0 -18 -22 -12 -15 4 -35 15 -46 26 -23 23 -40 26
-40 6 0 -26 12 -46 27 -46 24 0 88 -62 85 -81 -2 -9 2 -20 8 -24 11 -7 3 -52
-12 -72 -7 -8 -4 -23 6 -44 9 -18 16 -38 16 -46 0 -15 -16 -17 -25 -3 -10 16
-38 12 -32 -4 3 -8 -1 -17 -9 -20 -10 -4 -14 2 -14 22 0 38 -60 97 -88 88 -17
-6 -19 -3 -15 14 3 11 9 23 14 26 5 3 -4 17 -21 32 -16 15 -30 36 -30 47 0 14
-11 27 -35 38 -19 9 -35 21 -35 27 0 5 -9 10 -20 10 -24 0 -26 -18 -5 -34 22
-16 8 -58 -16 -51 -13 4 -19 1 -19 -9 0 -23 29 -46 59 -46 28 0 91 -47 91 -68
0 -13 -40 -25 -67 -20 -10 2 -19 13 -21 24 -2 12 -14 27 -27 34 -21 11 -27 9
-66 -30 l-43 -42 -18 22 c-10 12 -22 18 -29 14 -7 -4 -9 -3 -5 4 3 6 2 13 -4
17 -5 3 -10 19 -10 34 0 16 -6 33 -13 39 -7 6 -14 23 -15 38 -1 15 -8 34 -15
42 -8 11 -8 14 0 9 15 -10 27 11 15 26 -15 20 -23 65 -12 72 8 5 7 11 0 20 -8
10 -10 50 -5 132 4 65 9 120 11 122 2 2 0 9 -5 15 -5 6 -14 30 -21 54 -10 40
-9 46 13 75 13 18 27 47 30 65 6 32 6 32 -32 32 -48 0 -55 15 -26 55 30 41 48
96 35 109 -6 6 -12 3 -17 -10 -4 -10 -18 -19 -30 -20 -19 0 -22 3 -16 25 3 13
12 36 19 50 19 36 18 81 -1 81 -8 0 -15 9 -15 20 0 12 -5 17 -13 14 -9 -3 -12
7 -11 40 1 24 5 49 9 56 12 19 -6 26 -19 7 -17 -22 -26 -22 -26 3 0 27 -18 25
-22 -2 -4 -33 -23 -24 -25 12 -3 48 -3 53 3 90 3 20 1 51 -4 70 l-10 35 -1
-47 c-1 -27 -5 -48 -11 -48 -5 0 -10 -7 -10 -15 0 -9 -7 -27 -17 -41 l-16 -25
-19 40 c-10 22 -23 43 -28 46 -13 8 -13 115 0 115 6 0 10 9 10 21 0 14 -5 19
-14 16 -11 -4 -15 11 -21 67 -7 84 -25 124 -25 59 0 -23 -5 -43 -11 -45 -7 -2
-8 -19 -1 -55 7 -41 6 -53 -4 -57 -8 -3 -14 -17 -14 -31 0 -44 -17 -27 -24 23
-6 46 -8 49 -35 47 -27 -2 -31 3 -52 57 -13 32 -27 58 -30 58 -4 0 -12 15 -19
33 -7 17 -23 46 -35 62 -12 17 -27 47 -34 67 -16 50 -31 58 -24 13 7 -40 -13
-50 -23 -10 -3 13 -13 30 -22 37 -13 12 -14 9 -8 -24 4 -21 4 -38 1 -38 -3 0
-21 25 -41 56 -47 73 -102 134 -122 134 -13 0 -12 -3 3 -20 16 -17 16 -20 2
-26 -10 -3 -36 11 -69 37 -70 55 -108 71 -157 63 -33 -5 -48 -1 -88 23 -63 37
-103 55 -103 44 0 -5 -28 -6 -63 -4 -50 4 -65 2 -76 -11 -17 -20 -70 -21 -77
-2 -12 32 -294 130 -294 103 0 -7 -4 -7 -12 1 -16 16 -35 15 -41 -2z m478
-166 c4 -6 -7 -10 -25 -10 -18 0 -29 4 -25 10 3 6 15 10 25 10 10 0 22 -4 25
-10z m575 -237 c0 -7 -4 -13 -9 -13 -10 0 -21 25 -21 48 1 15 3 14 15 -2 8
-11 15 -26 15 -33z m-224 -682 c48 -12 86 -41 74 -56 -8 -9 -2 -16 21 -26 32
-13 128 -103 184 -173 17 -20 38 -46 48 -57 9 -10 17 -23 17 -29 0 -5 11 -17
24 -25 13 -9 27 -28 31 -43 4 -15 13 -34 21 -43 7 -8 27 -56 43 -106 23 -74
29 -111 30 -198 1 -58 6 -117 11 -130 7 -19 6 -27 -6 -33 -14 -8 -14 -13 -4
-32 6 -12 10 -30 7 -41 -3 -10 2 -24 10 -30 8 -7 20 -26 27 -44 7 -17 27 -46
43 -64 30 -33 36 -42 68 -114 15 -34 35 -113 54 -212 5 -22 13 -51 18 -65 25
-61 49 -460 30 -494 -6 -12 -11 -59 -12 -106 0 -47 -5 -92 -10 -100 -5 -8 -9
-58 -8 -112 0 -73 -3 -98 -13 -98 -14 0 -29 -94 -21 -135 2 -14 0 -28 -4 -31
-5 -3 -9 4 -9 15 0 12 -5 21 -10 21 -11 0 -7 -101 5 -157 6 -26 4 -33 -8 -33
-25 0 -30 -19 -13 -45 19 -29 11 -80 -15 -98 -15 -11 -16 -20 -9 -51 12 -53 1
-81 -16 -41 -9 21 -13 24 -14 11 0 -15 -5 -17 -34 -12 -23 4 -37 2 -45 -8 -16
-19 -51 -8 -51 15 0 18 15 23 73 22 28 0 17 40 -13 47 l-25 6 23 12 c28 16 31
67 3 75 -16 4 -17 11 -11 58 4 30 6 89 6 132 -1 74 0 77 21 77 13 0 23 5 23
11 0 7 7 17 17 24 19 14 9 37 -12 28 -8 -3 -15 0 -15 6 0 6 5 11 10 11 6 0 10
23 10 50 0 47 -14 67 -26 36 -6 -16 -42 -18 -61 -3 -9 7 -13 4 -13 -8 0 -9 -9
-19 -20 -22 -11 -3 -20 -10 -20 -16 0 -6 -3 -7 -6 -4 -4 4 1 18 10 33 10 14
15 28 12 31 -3 3 -8 -2 -12 -11 -5 -13 -15 -15 -58 -10 -104 13 -183 43 -144
56 6 2 8 10 4 17 -6 9 -11 9 -21 1 -10 -9 -20 -7 -39 5 -29 19 -34 35 -11 35
8 0 15 6 15 14 0 14 -30 28 -65 30 -22 1 -23 8 -10 92 6 41 4 54 -10 68 -12
12 -20 14 -25 6 -5 -7 -11 -6 -20 5 -11 14 -10 17 8 22 14 3 22 13 22 27 0 13
11 33 25 46 l24 23 11 -27 c5 -15 10 -32 10 -37 0 -5 5 -9 11 -9 5 0 7 4 4 10
-3 5 -2 18 4 27 7 13 5 23 -6 36 -14 14 -14 21 -4 41 7 13 14 35 14 50 1 14 5
26 9 26 15 0 30 42 19 53 -27 27 0 34 52 12 26 -11 21 14 -8 41 -14 13 -25 28
-25 34 0 19 102 12 138 -10 44 -27 82 -27 82 0 0 20 37 42 62 37 7 -1 14 6 16
16 2 12 -3 17 -18 17 -17 0 -20 3 -12 13 10 12 15 38 13 70 0 10 -13 22 -28
28 -28 11 -28 11 -5 20 22 8 29 24 14 33 -5 3 -8 24 -8 48 1 35 4 42 19 40 21
-4 22 15 0 64 -9 22 -15 51 -14 65 1 14 -5 32 -14 39 -9 7 -22 28 -29 45 -10
22 -28 39 -60 55 -26 12 -54 33 -63 46 -8 13 -23 24 -33 24 -10 0 -20 3 -22 8
-6 13 -79 53 -155 83 -17 7 -29 17 -26 22 3 5 -4 4 -15 -2 -16 -8 -25 -6 -45
9 -22 18 -26 18 -37 4 -9 -10 -16 -12 -24 -4 -5 5 -27 10 -48 10 -21 0 -38 5
-38 10 0 18 -29 10 -35 -10 -3 -11 -10 -20 -15 -20 -5 0 -7 7 -4 15 4 9 0 15
-10 15 -10 0 -16 8 -16 22 0 12 -10 32 -22 45 -27 29 -58 30 -58 3 0 -11 -7
-20 -15 -20 -8 0 -15 7 -15 15 0 8 -5 15 -10 15 -15 0 -43 30 -59 63 -8 15
-20 27 -28 27 -7 0 -13 5 -13 11 0 6 7 9 15 5 8 -3 19 3 24 13 13 24 3 33 -21
20 -14 -7 -23 -7 -34 2 -22 18 -17 29 16 29 17 0 30 5 30 10 0 16 19 11 41
-11 11 -11 28 -19 37 -17 9 1 23 -1 30 -5 8 -6 12 -2 12 12 0 14 -6 21 -19 21
-10 0 -21 6 -24 14 -4 9 -14 12 -26 9 -15 -4 -21 -1 -21 10 0 9 5 19 10 22 13
8 12 16 0 35 -9 13 -14 11 -33 -13 l-23 -28 -11 36 -11 35 34 0 c37 0 46 19
14 27 -16 4 -18 8 -9 19 14 17 49 1 49 -21 0 -17 9 -19 30 -5 12 8 9 15 -20
45 -32 33 -37 35 -78 29 -25 -4 -53 -2 -65 4 -19 9 -80 24 -111 26 -24 2 -45
55 -50 127 -4 65 -9 81 -31 105 l-26 28 36 22 c22 13 45 19 62 16 19 -4 24 -1
21 9 -3 8 -13 14 -24 15 -46 2 -54 5 -54 14 0 26 134 48 156 25 8 -7 22 -11
33 -8 13 3 20 -1 23 -14 3 -14 8 -11 22 15 17 32 20 34 69 31 85 -4 155 1 133
10 -29 11 -3 23 36 16 18 -3 47 -2 63 3 17 5 43 5 60 0 17 -6 44 -13 61 -17z
m1452 -138 c2 -14 -4 -26 -17 -32 -21 -12 -38 0 -26 18 3 5 1 12 -5 16 -17 10
0 26 23 23 14 -2 23 -11 25 -25z m-278 -73 c0 -5 -7 -10 -15 -10 -8 0 -15 5
-15 10 0 6 7 10 15 10 8 0 15 -4 15 -10z m268 -18 c2 -7 -2 -10 -12 -6 -9 3
-16 11 -16 16 0 13 23 5 28 -10z m-87 -22 c5 0 8 -15 7 -32 -2 -26 1 -33 15
-32 9 1 17 -3 17 -8 0 -19 -54 -2 -73 24 -22 30 -17 64 9 54 9 -3 20 -6 25 -6z
m-16 -210 c3 -6 -1 -7 -9 -4 -18 7 -21 14 -7 14 6 0 13 -4 16 -10z m65 -41 c0
-10 -7 -19 -15 -19 -8 0 -15 -4 -15 -10 0 -17 -17 -11 -24 8 -3 9 -8 22 -11
28 -3 6 9 10 30 11 28 1 35 -3 35 -18z m635 -19 c-5 -16 -2 -20 14 -20 14 0
21 -6 21 -20 0 -26 -14 -25 -40 2 -24 26 -26 58 -4 58 11 0 14 -6 9 -20z
m-597 -38 c3 -9 -2 -13 -14 -10 -9 1 -19 9 -22 16 -3 9 2 13 14 10 9 -1 19 -9
22 -16z m802 4 c77 -11 101 -19 111 -37 6 -12 21 -19 39 -19 31 0 49 -15 103
-87 18 -23 38 -43 45 -43 6 0 12 -11 12 -25 0 -14 4 -25 9 -25 10 0 51 -65 51
-82 0 -5 -7 -8 -15 -4 -9 3 -15 0 -15 -9 0 -8 -9 -15 -21 -15 -13 0 -18 4 -13
12 4 6 1 16 -7 22 -28 22 -77 92 -81 115 -5 37 -26 37 -30 0 -3 -27 -7 -32
-34 -35 -25 -3 -33 1 -37 17 -3 12 0 22 9 26 22 8 17 33 -7 33 -25 0 -53 26
-44 41 8 12 -34 61 -45 54 -5 -3 -8 -20 -8 -39 0 -25 4 -33 16 -32 11 1 18 -8
20 -24 2 -14 8 -35 14 -47 15 -30 3 -41 -22 -18 -10 9 -26 15 -34 12 -8 -3
-17 1 -20 9 -4 10 -13 13 -26 9 -18 -6 -20 -3 -14 19 4 16 2 26 -5 26 -6 0
-20 9 -30 19 -14 14 -16 22 -8 30 8 8 8 11 0 11 -20 0 -24 32 -6 46 10 8 13
14 6 14 -7 0 -17 8 -22 18 -8 15 -4 17 32 15 23 -1 58 -4 77 -7z m200 -26 c0
-5 -4 -10 -9 -10 -6 0 -13 5 -16 10 -3 6 1 10 9 10 9 0 16 -4 16 -10z m-410
-30 c0 -5 -4 -10 -10 -10 -5 0 -10 5 -10 10 0 6 5 10 10 10 6 0 10 -4 10 -10z
m-530 -16 c0 -8 -4 -12 -10 -9 -5 3 -10 10 -10 16 0 5 5 9 10 9 6 0 10 -7 10
-16z m445 -14 c3 -5 1 -10 -4 -10 -6 0 -11 5 -11 10 0 6 2 10 4 10 3 0 8 -4
11 -10z m28 -29 c19 -1 27 -6 27 -20 0 -24 -58 -35 -78 -15 -7 8 -18 14 -23
14 -5 0 -9 6 -9 13 0 8 11 12 28 11 15 -1 39 -2 55 -3z m-423 -21 c0 -5 -7
-10 -15 -10 -8 0 -15 5 -15 10 0 6 7 10 15 10 8 0 15 -4 15 -10z m530 -41 c12
-21 13 -39 2 -39 -7 0 -42 52 -42 64 0 12 31 -7 40 -25z m555 -18 c3 -5 1 -12
-4 -15 -5 -3 -11 1 -15 9 -6 16 9 21 19 6z m-1140 -51 c3 -5 1 -10 -4 -10 -6
0 -11 5 -11 10 0 6 2 10 4 10 3 0 8 -4 11 -10z m595 -20 c0 -5 -4 -10 -9 -10
-6 0 -13 5 -16 10 -3 6 1 10 9 10 9 0 16 -4 16 -10z m311 -10 c24 -14 25 -40
0 -40 -17 0 -31 18 -31 41 0 12 7 11 31 -1z m-257 -25 c-4 -8 -15 -15 -26 -15
-17 0 -18 3 -8 15 7 8 19 15 26 15 8 0 11 -6 8 -15z m-2380 -11 c18 -7 10 -34
-10 -34 -8 0 -14 2 -14 4 0 2 -3 11 -6 20 -6 17 4 20 30 10z m2481 -4 c3 -5 2
-10 -4 -10 -5 0 -13 5 -16 10 -3 6 -2 10 4 10 5 0 13 -4 16 -10z m472 -22 c-3
-8 -6 -5 -6 6 -1 11 2 17 5 13 3 -3 4 -12 1 -19z m-262 -18 c3 -5 -1 -10 -9
-10 -9 0 -16 5 -16 10 0 6 4 10 9 10 6 0 13 -4 16 -10z m160 0 c3 -5 1 -10 -4
-10 -6 0 -11 5 -11 10 0 6 2 10 4 10 3 0 8 -4 11 -10z m152 -34 c-4 -9 -11
-16 -17 -16 -11 0 -14 33 -3 44 11 10 26 -11 20 -28z m-683 15 c3 -5 -1 -11
-9 -15 -15 -6 -29 7 -18 18 9 9 21 8 27 -3z m219 -21 c3 -11 2 -20 -3 -20 -8
0 -20 24 -20 41 0 17 17 1 23 -21z m197 20 c0 -5 -7 -10 -15 -10 -8 0 -15 5
-15 10 0 6 7 10 15 10 8 0 15 -4 15 -10z m-2707 -17 c-7 -2 -21 -2 -30 0 -10
3 -4 5 12 5 17 0 24 -2 18 -5z m1437 -13 c0 -5 -4 -10 -10 -10 -5 0 -10 5 -10
10 0 6 5 10 10 10 6 0 10 -4 10 -10z m905 -60 c3 -5 2 -10 -4 -10 -5 0 -13 5
-16 10 -3 6 -2 10 4 10 5 0 13 -4 16 -10z m-77 -18 c2 -7 -3 -12 -12 -12 -9 0
-16 7 -16 16 0 17 22 14 28 -4z m300 -7 c6 -14 8 -25 4 -25 -12 0 -32 23 -32
37 0 22 16 15 28 -12z m-228 -20 c0 -7 6 -16 13 -19 6 -3 -1 -3 -18 1 -37 7
-39 9 -32 27 7 18 37 10 37 -9z m-1120 -67 c0 -12 8 -18 24 -18 14 0 28 -4 31
-10 3 -5 1 -10 -6 -10 -11 0 -10 -17 5 -145 2 -16 0 -37 -5 -46 -6 -11 -4 -21
6 -29 13 -11 13 -14 -2 -25 -28 -21 -9 -45 37 -45 46 0 51 11 15 30 -27 15
-31 30 -14 47 9 9 8 18 -5 38 -13 20 -15 30 -6 40 6 8 10 24 8 36 -4 31 29 50
46 27 7 -10 18 -18 23 -18 5 0 18 -9 27 -19 17 -19 17 -19 -3 -14 -12 3 -21 1
-21 -6 0 -6 5 -11 10 -11 18 0 10 -29 -10 -35 -24 -7 -26 -37 -5 -55 18 -15
19 -37 3 -43 -9 -3 -6 -10 10 -22 24 -18 30 -51 10 -58 -10 -3 -9 -11 4 -33
18 -32 38 -43 38 -22 0 7 9 24 20 38 28 36 26 70 -3 70 -23 0 -47 17 -47 32 0
5 11 6 25 2 15 -4 25 -2 25 5 0 6 -13 11 -30 11 -25 0 -30 4 -30 25 0 14 -4
25 -10 25 -5 0 -10 5 -10 10 0 6 9 10 19 10 11 0 23 5 26 10 14 23 34 8 40
-30 4 -26 13 -41 25 -45 11 -4 17 -12 13 -21 -3 -9 2 -14 16 -14 18 0 20 -4
15 -25 -4 -15 -1 -32 6 -40 12 -14 7 -20 -15 -15 -5 1 -4 -4 3 -11 19 -20 14
-56 -10 -80 -22 -20 -22 -22 -5 -33 53 -32 53 -33 34 -53 -17 -17 -19 -17 -31
0 -12 15 -18 16 -40 6 -14 -7 -26 -18 -26 -26 0 -16 -22 -17 -37 -2 -15 15
-26 -65 -24 -176 1 -66 -1 -85 -9 -73 -6 9 -12 75 -15 147 -2 72 -8 138 -13
148 -5 10 -13 37 -17 59 -5 36 -11 43 -35 48 -16 3 -43 0 -60 -6 -37 -13 -51
-3 -24 17 19 15 18 15 -5 35 l-24 21 21 6 c30 7 28 23 -3 23 -32 0 -42 23 -25
56 7 13 14 38 15 56 1 18 6 41 10 52 5 10 3 46 -4 80 -6 33 -14 80 -17 104 -5
41 -4 42 16 30 11 -7 20 -21 20 -30z m370 22 c8 -5 11 -10 5 -10 -5 0 -17 5
-25 10 -8 5 -10 10 -5 10 6 0 17 -5 25 -10z m630 -11 c0 -5 -4 -9 -10 -9 -5 0
-10 7 -10 16 0 8 5 12 10 9 6 -3 10 -10 10 -16z m-853 -8 c13 -11 21 -28 20
-44 -2 -28 -27 -39 -27 -12 0 8 -6 15 -12 16 -7 0 -23 13 -36 30 l-24 29 29 0
c15 -1 38 -9 50 -19z m123 -56 c7 -8 21 -15 31 -15 24 0 24 -5 -2 -31 l-21
-21 -24 23 c-26 25 -32 59 -10 59 7 0 19 -7 26 -15z m210 -11 c0 -14 -3 -14
-15 -4 -8 7 -15 14 -15 16 0 2 7 4 15 4 8 0 15 -7 15 -16z m960 -34 c0 -5 -4
-10 -10 -10 -5 0 -10 5 -10 10 0 6 5 10 10 10 6 0 10 -4 10 -10z m-965 -11 c4
-6 17 -14 29 -19 19 -8 18 -9 -11 -15 -33 -8 -42 -19 -23 -30 20 -13 9 -22
-25 -21 -34 1 -51 -18 -17 -20 9 -1 30 -4 45 -9 26 -7 27 -8 10 -20 -10 -6
-30 -15 -45 -19 -21 -5 -28 -2 -33 14 -3 11 -10 20 -15 20 -14 0 -39 66 -33
88 4 17 13 22 39 22 19 0 34 5 34 10 0 13 37 13 45 -1z m535 -20 c0 -11 -47
-38 -54 -32 -10 10 -7 38 5 50 9 9 16 9 30 0 11 -7 19 -15 19 -18z m103 15 c9
-4 17 -10 17 -15 0 -12 -17 -11 -25 1 -3 6 -18 7 -33 3 -25 -6 -26 -5 -13 11
8 9 19 14 25 11 6 -3 19 -8 29 -11z m83 -20 c-3 -7 -1 -16 4 -19 15 -9 12 -25
-4 -25 -14 0 -29 48 -19 63 7 12 25 -4 19 -19z m-985 3 c-1 -12 -15 -9 -19 4
-3 6 1 10 8 8 6 -3 11 -8 11 -12z m109 -19 c0 -13 -32 -6 -37 9 -3 7 3 9 16 6
12 -3 21 -10 21 -15z m-50 -18 c0 -5 -4 -10 -9 -10 -6 0 -13 5 -16 10 -3 6 1
10 9 10 9 0 16 -4 16 -10z m310 -11 c0 -5 -4 -9 -10 -9 -5 0 -10 7 -10 16 0 8
5 12 10 9 6 -3 10 -10 10 -16z m1030 6 c0 -8 -8 -15 -19 -15 -10 0 -24 7 -31
15 -11 13 -8 15 19 15 21 0 31 -5 31 -15z m-493 -1 c-3 -3 -12 -4 -19 -1 -8 3
-5 6 6 6 11 1 17 -2 13 -5z m543 -13 c0 -23 -16 -36 -25 -21 -9 14 1 40 15 40
5 0 10 -9 10 -19z m-2202 -10 c3 -8 -1 -12 -9 -9 -7 2 -15 10 -17 17 -3 8 1
12 9 9 7 -2 15 -10 17 -17z m1204 -23 c13 -20 13 -25 -1 -40 -15 -15 -18 -14
-46 8 -29 23 -29 24 -10 38 28 21 40 20 57 -6z m1078 6 c0 -8 -4 -12 -10 -9
-5 3 -10 10 -10 16 0 5 5 9 10 9 6 0 10 -7 10 -16z m-910 -4 c0 -5 -4 -10 -10
-10 -5 0 -10 5 -10 10 0 6 5 10 10 10 6 0 10 -4 10 -10z m-2545 -20 c3 -5 0
-10 -7 -11 -10 0 -10 -2 0 -6 26 -11 11 -32 -25 -35 -48 -4 -44 -23 4 -22 l35
1 -6 -58 c-5 -44 -3 -64 9 -82 8 -13 16 -42 18 -65 1 -22 6 -44 10 -48 14 -14
6 -24 -19 -24 -22 0 -24 -2 -14 -14 6 -8 18 -12 26 -9 8 3 17 -3 21 -12 6 -17
7 -17 20 1 13 18 14 18 19 -4 4 -12 14 -22 24 -22 17 0 70 -46 70 -60 0 -5 8
-6 18 -4 12 4 21 -4 29 -26 9 -25 16 -30 31 -26 13 4 22 1 26 -9 3 -8 14 -15
25 -15 11 0 23 -5 27 -11 7 -11 -43 -9 -127 6 -30 6 -39 3 -52 -15 -9 -13 -23
-20 -34 -18 -22 4 -53 -21 -53 -43 0 -9 -7 -22 -15 -29 -11 -9 -12 -16 -5 -25
6 -7 8 -19 5 -28 -4 -9 2 -21 15 -30 12 -9 19 -20 16 -25 -9 -15 25 -24 41
-11 21 18 38 -3 24 -30 -11 -20 -61 -31 -61 -13 0 10 -68 37 -95 37 -16 0 -21
8 -23 44 -2 32 -8 44 -22 48 -16 4 -18 12 -13 60 5 49 4 55 -15 59 l-20 6 20
20 c20 20 21 43 2 118 -6 21 -4 23 7 13 19 -18 36 -16 41 5 4 14 0 18 -16 18
-17 -1 -21 5 -22 29 -1 17 -5 38 -9 47 -5 12 -2 20 9 24 23 9 20 27 -4 21 -15
-4 -20 0 -21 16 -1 12 0 26 1 32 1 5 2 19 3 30 1 11 6 30 12 42 18 35 12 68
-14 71 -34 5 -24 44 15 57 17 6 29 15 27 23 -5 14 33 17 42 2z m2619 -66 c9
-3 16 -13 16 -21 0 -9 -6 -13 -15 -9 -12 4 -14 0 -9 -19 9 -36 -12 -32 -52 9
l-34 35 28 4 c47 7 50 7 66 1z m853 -44 c11 -16 10 -18 -1 -14 -15 6 -30 34
-18 34 4 0 13 -9 19 -20z m-1373 -25 c9 -19 21 -35 26 -35 6 0 10 -14 10 -31
0 -52 -23 -31 -64 60 -19 41 -19 41 -2 41 7 0 21 -16 30 -35z m662 4 l16 -32
-39 8 c-46 8 -53 12 -53 30 0 7 12 16 28 18 15 2 28 5 29 6 1 0 10 -13 19 -30z
m857 -13 c4 -10 1 -13 -9 -9 -7 3 -14 9 -14 14 0 14 17 10 23 -5z m-1153 -6
c0 -5 -5 -10 -11 -10 -5 0 -7 5 -4 10 3 6 8 10 11 10 2 0 4 -4 4 -10z m40 -10
c0 -5 -4 -10 -10 -10 -5 0 -10 5 -10 10 0 6 5 10 10 10 6 0 10 -4 10 -10z
m181 -5 c-1 -15 -24 -12 -29 3 -3 9 2 13 12 10 10 -1 17 -7 17 -13z m103 -38
c14 -22 3 -31 -29 -23 -26 7 -34 31 -12 39 18 8 29 3 41 -16z m-366 -5 c3 -9
-2 -13 -14 -10 -9 1 -19 9 -22 16 -3 9 2 13 14 10 9 -1 19 -9 22 -16z m76 9
c3 -5 -1 -11 -9 -15 -9 -3 -15 0 -15 9 0 16 16 20 24 6z m406 -27 c0 -8 -4
-12 -10 -9 -5 3 -10 10 -10 16 0 5 5 9 10 9 6 0 10 -7 10 -16z m-767 -55 c6
-24 -2 -59 -14 -59 -5 0 -9 -7 -9 -15 0 -21 -13 -19 -29 6 -11 18 -11 23 0 30
11 6 11 14 1 42 -7 18 -12 39 -12 46 0 17 57 -28 63 -50z m302 31 c3 -5 1 -10
-4 -10 -6 0 -11 5 -11 10 0 6 2 10 4 10 3 0 8 -4 11 -10z m-1470 -20 c3 -5 1
-10 -4 -10 -6 0 -11 5 -11 10 0 6 2 10 4 10 3 0 8 -4 11 -10z m620 -20 c4 -6
1 -9 -5 -8 -7 2 -19 -15 -26 -37 l-14 -40 5 39 c2 22 10 43 17 48 16 10 16 10
23 -2z m625 -30 c0 -5 -4 -10 -10 -10 -5 0 -10 5 -10 10 0 6 5 10 10 10 6 0
10 -4 10 -10z m-35 -30 c3 -5 1 -10 -4 -10 -6 0 -11 5 -11 10 0 6 2 10 4 10 3
0 8 -4 11 -10z m235 -4 c0 -8 -7 -16 -15 -20 -8 -3 -15 -13 -15 -22 0 -8 -6
-14 -12 -11 -16 5 -12 48 5 59 19 12 37 9 37 -6z m-730 -96 c0 -15 4 -30 9
-35 29 -33 52 -463 24 -458 -6 2 -15 -6 -18 -17 -6 -19 -42 -37 -53 -26 -3 4
7 19 23 36 25 26 27 34 21 71 -4 24 -11 48 -15 54 -5 5 -4 39 4 76 15 83 0
130 -48 150 -47 19 -106 62 -107 77 0 19 23 39 38 34 6 -2 12 3 12 12 0 10 9
16 25 16 22 0 25 4 25 33 0 18 7 43 16 56 l17 23 13 -38 c8 -22 14 -50 14 -64z
m-820 70 c0 -13 -11 -13 -30 0 -12 8 -11 10 8 10 12 0 22 -4 22 -10z m1176 1
c1 -1 -4 -20 -11 -43 -20 -70 -54 -57 -41 15 5 27 10 33 29 31 12 -1 23 -3 23
-3z m134 -72 c0 -13 -24 -11 -38 3 -7 7 -12 23 -12 38 l1 25 24 -28 c14 -15
25 -32 25 -38z m77 29 c-3 -8 -6 -5 -6 6 -1 11 2 17 5 13 3 -3 4 -12 1 -19z
m-2346 -89 l-10 -24 0 26 c-1 14 2 29 6 33 12 12 14 -9 4 -35z m19 -109 c0 -5
-2 -10 -4 -10 -3 0 -8 5 -11 10 -3 6 -1 10 4 10 6 0 11 -4 11 -10z m1943 -42
c-3 -16 -9 -28 -14 -28 -5 0 -6 7 -4 15 3 8 7 22 10 31 8 26 14 12 8 -18z
m-1079 -67 c3 -5 -1 -11 -9 -15 -9 -3 -15 0 -15 9 0 16 16 20 24 6z m-535 -48
c6 -21 11 -46 11 -55 0 -22 -19 -33 -33 -19 -6 6 -19 11 -30 11 -10 0 -17 3
-15 8 2 4 12 26 22 50 10 23 22 42 27 42 4 0 13 -17 18 -37z m1246 -3 c19 -37
19 -70 -1 -98 -23 -33 -46 -13 -33 30 4 17 7 46 4 65 -5 41 9 43 30 3z m305
-112 c-12 -40 -26 -89 -31 -108 -6 -19 -14 -44 -19 -55 -4 -11 -14 -40 -21
-65 -7 -25 -21 -57 -31 -72 -10 -14 -18 -29 -18 -33 0 -16 -95 -105 -121 -114
-24 -8 -31 -7 -39 10 -6 10 -29 31 -51 45 -41 25 -41 26 -35 77 12 126 20 152
43 155 42 6 81 80 52 98 -20 12 13 23 40 12 43 -16 61 -38 55 -65 -4 -16 0
-31 11 -44 18 -19 19 -19 46 13 16 18 28 39 29 46 0 19 20 14 20 -5 0 -40 30
32 45 107 9 45 37 99 42 83 3 -7 -5 -45 -17 -85z m-825 -148 c3 -5 -1 -10 -9
-10 -9 0 -16 5 -16 10 0 6 4 10 9 10 6 0 13 -4 16 -10z m235 -10 c0 -5 -9 -14
-21 -20 -12 -7 -18 -17 -15 -27 4 -9 1 -13 -6 -11 -19 7 -22 38 -5 38 8 0 17
7 21 15 6 17 26 21 26 5z m10 -440 c0 -11 -2 -20 -4 -20 -2 0 -6 9 -9 20 -3
11 -1 20 4 20 5 0 9 -9 9 -20z m-3 -191 c7 -18 10 -36 7 -40 -3 -5 2 -19 10
-31 21 -29 20 -38 -3 -38 -12 0 -18 7 -17 17 0 10 -11 23 -26 31 -33 16 -39
65 -10 81 25 15 26 14 39 -20z m-927 -4 c0 -8 -4 -15 -10 -15 -5 0 -10 7 -10
15 0 8 5 15 10 15 6 0 10 -7 10 -15z m917 -177 c-3 -8 -6 -5 -6 6 -1 11 2 17
5 13 3 -3 4 -12 1 -19z m176 -34 c11 -14 17 -28 14 -30 -11 -11 -47 17 -47 36
0 27 11 25 33 -6z m122 -173 c-3 -2 -11 2 -20 9 -10 8 -15 29 -15 59 l1 46 19
-55 c10 -30 17 -57 15 -59z m75 -67 c11 -37 18 -46 42 -51 15 -3 30 -9 33 -13
4 -7 -72 4 -79 11 -2 2 -11 27 -19 56 -12 41 -13 51 -2 47 7 -3 18 -25 25 -50z
m-1260 -78 c0 -11 -19 -15 -25 -6 -3 5 1 10 9 10 9 0 16 -2 16 -4z m1044 -15
c3 -5 -6 -8 -19 -8 -14 0 -25 3 -25 8 0 5 9 9 19 9 11 0 22 -4 25 -9z m345
-38 c9 -8 10 -13 3 -13 -14 0 -52 40 -52 54 0 6 8 1 18 -9 9 -11 23 -26 31
-32z m-3139 -13 c0 -5 -7 -10 -15 -10 -8 0 -15 5 -15 10 0 6 7 10 15 10 8 0
15 -4 15 -10z m2855 0 c8 -13 -5 -13 -25 0 -13 8 -13 10 2 10 9 0 20 -4 23
-10z m-2925 -20 c0 -5 -8 -10 -17 -10 -15 0 -16 2 -3 10 19 12 20 12 20 0z
m2995 -20 c3 -5 -3 -10 -14 -10 -10 0 -21 -5 -23 -11 -2 -7 -12 -7 -30 2 -15
6 -25 16 -22 20 7 12 81 11 89 -1z m285 -23 c0 -5 -4 -5 -10 -2 -5 3 -10 14
-10 23 0 15 2 15 10 2 5 -8 10 -19 10 -23z m-220 -25 c0 -8 -1 -13 -3 -11 -1
2 -9 12 -16 22 -12 15 -12 17 3 11 9 -3 16 -13 16 -22z m-3220 -32 c0 -4 -9
-6 -21 -3 -15 4 -17 8 -8 14 14 8 29 3 29 -11z m3294 -5 c15 -14 35 -25 44
-25 16 -1 16 -1 0 -10 -20 -12 -48 -3 -48 15 0 7 -10 20 -22 28 -13 9 -18 16
-12 16 6 1 23 -10 38 -24z m-3674 -81 c0 -8 -5 -12 -10 -9 -6 4 -8 11 -5 16 9
14 15 11 15 -7z m631 -47 c-6 -6 -11 -18 -11 -27 0 -9 -13 -26 -29 -38 -16
-12 -32 -30 -34 -39 -2 -10 -3 -5 -1 10 2 16 21 56 41 90 32 51 39 57 41 38 2
-13 -1 -28 -7 -34z m-554 -8 c-14 -8 -22 -8 -30 0 -8 8 -3 11 19 11 25 -1 27
-2 11 -11z m230 -35 c-3 -3 -12 -4 -19 -1 -8 3 -5 6 6 6 11 1 17 -2 13 -5z
m2563 -237 c0 -22 -11 -27 -26 -12 -19 19 -18 25 6 25 11 0 20 -6 20 -13z
m-2553 -170 c-6 -20 -27 -19 -27 2 0 14 5 19 15 14 9 -3 14 -10 12 -16z m108
-55 c-4 -16 -1 -28 6 -33 18 -11 -8 -59 -32 -59 -20 0 -99 40 -99 51 0 4 16
10 35 13 22 5 43 18 57 36 24 34 43 30 33 -8z m2155 -82 c0 -5 -5 -10 -11 -10
-5 0 -7 5 -4 10 3 6 8 10 11 10 2 0 4 -4 4 -10z m931 -83 c-13 -13 -26 -3 -16
12 3 6 11 8 17 5 6 -4 6 -10 -1 -17z m-2915 -52 c-23 -17 -36 -19 -36 -6 0 11
18 19 40 20 11 0 10 -3 -4 -14z m-1026 -24 c0 -5 -7 -12 -16 -15 -22 -9 -24
-8 -24 9 0 8 9 15 20 15 11 0 20 -4 20 -9z m530 -32 c0 -6 -4 -7 -10 -4 -5 3
-10 11 -10 16 0 6 5 7 10 4 6 -3 10 -11 10 -16z m210 -39 c0 -5 -7 -10 -16
-10 -8 0 -12 5 -9 10 3 6 10 10 16 10 5 0 9 -4 9 -10z m8 -27 c56 -13 29 -36
-36 -31 -37 3 -39 5 -31 27 7 17 14 21 27 16 9 -4 27 -10 40 -12z m-1 -60 c2
-6 -8 -13 -22 -15 -27 -6 -32 1 -13 20 14 14 30 11 35 -5z m63 7 c-19 -13 -30
-13 -30 0 0 6 10 10 23 10 18 0 19 -2 7 -10z m44 -36 c4 -9 4 -19 2 -21 -8 -8
-26 8 -26 23 0 19 16 18 24 -2z m-94 -9 c0 -8 -4 -15 -10 -15 -5 0 -10 7 -10
15 0 8 5 15 10 15 6 0 10 -7 10 -15z m70 -39 c0 -11 -19 -15 -25 -6 -3 5 1 10
9 10 9 0 16 -2 16 -4z m2665 -15 c6 -11 -33 -36 -42 -27 -7 7 16 36 28 36 4 0
10 -4 14 -9z m-515 -5 c0 -3 -4 -8 -10 -11 -5 -3 -10 -1 -10 4 0 6 5 11 10 11
6 0 10 -2 10 -4z m-2137 -32 c-4 -10 -9 -12 -15 -6 -12 12 -1 35 12 27 5 -3 6
-13 3 -21z m64 -10 c-3 -3 -12 -4 -19 -1 -8 3 -5 6 6 6 11 1 17 -2 13 -5z
m2398 -24 c3 -5 2 -10 -4 -10 -5 0 -13 5 -16 10 -3 6 -2 10 4 10 5 0 13 -4 16
-10z m-185 -61 c0 -5 -4 -9 -10 -9 -5 0 -10 7 -10 16 0 8 5 12 10 9 6 -3 10
-10 10 -16z m-1590 -60 c0 -11 -4 -18 -10 -14 -5 3 -7 12 -3 20 7 21 13 19 13
-6z m60 -1 c0 -16 -3 -19 -11 -11 -6 6 -8 16 -5 22 11 17 16 13 16 -11z m-474
-45 c-11 -11 -17 4 -9 23 7 18 8 18 11 1 2 -10 1 -21 -2 -24z m-267 -34 c-17
-10 -25 -4 -32 21 -4 17 -3 19 8 10 9 -8 15 -6 21 7 7 16 8 15 12 -6 2 -13 -2
-27 -9 -32z m301 -11 c0 -17 4 -19 25 -14 31 8 54 -2 34 -15 -10 -6 -9 -10 6
-15 11 -4 43 -28 70 -54 28 -25 91 -73 140 -105 58 -38 84 -60 73 -63 -9 -2
-15 -9 -12 -16 3 -9 -5 -13 -26 -14 -32 -1 -37 6 -17 27 10 11 9 12 -3 5 -18
-10 -82 -6 -94 7 -6 5 -18 9 -27 9 -9 0 -19 9 -22 20 -3 12 -14 20 -27 20 -35
0 -59 17 -53 40 4 13 0 20 -10 20 -8 0 -22 11 -31 25 -12 19 -23 24 -37 20
-16 -5 -19 -2 -19 23 0 17 -6 33 -12 36 -7 2 -3 4 9 3 29 -3 30 16 1 24 -20 5
-21 7 -5 14 9 4 17 14 17 22 0 8 5 11 10 8 6 -3 10 -15 10 -27z m841 -231
c-16 -16 -26 0 -10 19 9 11 15 12 17 4 2 -6 -1 -17 -7 -23z m79 -231 c0 -3 -4
-8 -10 -11 -5 -3 -10 -1 -10 4 0 6 5 11 10 11 6 0 10 -2 10 -4z m184 -41 c54
-16 116 -52 116 -66 0 -11 -116 -11 -183 0 -57 9 -101 39 -105 71 -4 22 -2 23
60 16 34 -3 85 -13 112 -21z"/>
<path d="M4065 5780 c-3 -6 1 -13 10 -16 19 -8 30 0 20 15 -8 14 -22 14 -30 1z"/>
<path d="M3931 5613 c-8 -14 -11 -15 -25 -4 -9 8 -20 10 -24 6 -4 -4 -1 -10 6
-12 10 -4 10 -8 1 -19 -9 -11 -7 -14 14 -14 27 0 49 -21 29 -28 -23 -7 -12
-32 13 -32 25 0 30 -10 26 -51 -2 -19 22 -31 43 -23 14 5 16 28 3 40 -15 15
-7 44 12 44 15 0 18 -7 18 -42 -1 -24 -6 -47 -12 -51 -10 -7 42 2 58 10 4 2 7
22 7 43 0 22 7 45 16 54 14 15 13 16 -16 16 -27 0 -30 3 -25 20 4 11 2 20 -4
20 -6 0 -11 -6 -11 -14 0 -9 -12 -14 -35 -14 -29 0 -38 6 -56 34 -24 39 -25
40 -38 17z"/>
<path d="M3913 5455 c0 -8 4 -15 9 -15 4 0 8 7 8 15 0 8 -4 15 -8 15 -5 0 -9
-7 -9 -15z"/>
<path d="M4155 5220 c-3 -5 1 -10 9 -10 9 0 16 5 16 10 0 6 -4 10 -9 10 -6 0
-13 -4 -16 -10z"/>
<path d="M4205 5120 c-3 -5 -1 -10 4 -10 6 0 11 5 11 10 0 6 -2 10 -4 10 -3 0
-8 -4 -11 -10z"/>
<path d="M4100 5089 c0 -4 7 -14 15 -21 9 -7 24 -21 35 -31 12 -13 25 -17 39
-12 22 7 29 27 9 24 -29 -3 -48 2 -48 14 0 6 -11 17 -25 24 -14 6 -25 7 -25 2z"/>
<path d="M4995 4320 c-3 -5 -1 -10 4 -10 6 0 11 5 11 10 0 6 -2 10 -4 10 -3 0
-8 -4 -11 -10z"/>
<path d="M4700 3995 c0 -8 4 -15 9 -15 5 0 11 7 15 15 3 9 0 15 -9 15 -8 0
-15 -7 -15 -15z"/>
<path d="M5067 3413 c-4 -3 -7 -11 -7 -17 0 -6 5 -5 12 2 6 6 9 14 7 17 -3 3
-9 2 -12 -2z"/>
<path d="M5000 3039 c0 -5 5 -7 10 -4 6 3 10 8 10 11 0 2 -4 4 -10 4 -5 0 -10
-5 -10 -11z"/>
<path d="M5685 4440 c3 -5 11 -10 16 -10 6 0 7 5 4 10 -3 6 -11 10 -16 10 -6
0 -7 -4 -4 -10z"/>
<path d="M5644 4189 c1 -47 26 -73 47 -52 9 9 9 15 0 27 -6 7 -11 18 -10 22 5
27 -3 44 -20 44 -16 0 -19 -7 -17 -41z"/>
<path d="M3772 3999 c2 -6 8 -10 13 -10 5 0 11 4 13 10 2 6 -4 11 -13 11 -9 0
-15 -5 -13 -11z"/>
<path d="M5470 3405 c-10 -12 -10 -15 4 -15 9 0 16 7 16 15 0 8 -2 15 -4 15
-2 0 -9 -7 -16 -15z"/>
<path d="M5280 3329 c-11 -27 -11 -36 1 -57 17 -31 66 -68 76 -59 12 13 -17
101 -41 125 l-23 23 -13 -32z"/>
<path d="M4954 2756 c-4 -10 -2 -22 4 -28 8 -8 13 -7 18 6 4 10 2 22 -4 28 -8
8 -13 7 -18 -6z"/>
<path d="M2130 1366 c0 -9 7 -16 16 -16 17 0 14 22 -4 28 -7 2 -12 -3 -12 -12z"/>
<path d="M2510 556 c0 -9 5 -16 10 -16 6 0 10 4 10 9 0 6 -4 13 -10 16 -5 3
-10 -1 -10 -9z"/>
<path d="M1866 6535 c4 -8 11 -15 16 -15 6 0 5 6 -2 15 -7 8 -14 15 -16 15 -2
0 -1 -7 2 -15z"/>
<path d="M2330 6486 c0 -9 5 -16 10 -16 6 0 10 4 10 9 0 6 -4 13 -10 16 -5 3
-10 -1 -10 -9z"/>
<path d="M5031 6391 c-1 -34 2 -42 11 -33 8 8 8 20 1 44 l-11 33 -1 -44z"/>
<path d="M5170 6338 c0 -11 12 -10 30 2 12 7 10 9 -8 7 -12 0 -22 -5 -22 -9z"/>
<path d="M5910 6306 c0 -22 17 -28 24 -10 9 22 8 24 -9 24 -8 0 -15 -6 -15
-14z"/>
<path d="M2316 6263 c-6 -14 -5 -15 5 -6 7 7 10 15 7 18 -3 3 -9 -2 -12 -12z"/>
<path d="M5250 6252 c0 -12 19 -26 26 -19 2 2 -2 10 -11 17 -9 8 -15 8 -15 2z"/>
<path d="M5920 6230 c0 -5 7 -7 15 -4 8 4 15 8 15 10 0 2 -7 4 -15 4 -8 0 -15
-4 -15 -10z"/>
<path d="M5320 6168 c0 -9 5 -20 11 -23 17 -11 20 0 4 21 -13 17 -14 17 -15 2z"/>
<path d="M5181 6148 c-8 -13 -9 -24 -3 -30 14 -14 32 -1 32 22 0 28 -14 32
-29 8z"/>
<path d="M5702 6154 c1 -9 9 -19 16 -22 9 -3 13 2 10 14 -1 9 -9 19 -16 22 -9
3 -13 -2 -10 -14z"/>
<path d="M5915 6111 c-7 -12 12 -24 25 -16 11 7 4 25 -10 25 -5 0 -11 -4 -15
-9z"/>
<path d="M5420 6050 c-19 -11 0 -34 23 -28 13 2 13 6 3 20 -8 11 -17 14 -26 8z"/>
<path d="M6180 6029 c0 -5 5 -7 10 -4 6 3 10 8 10 11 0 2 -4 4 -10 4 -5 0 -10
-5 -10 -11z"/>
<path d="M5752 5989 c2 -7 10 -15 17 -17 8 -3 12 1 9 9 -2 7 -10 15 -17 17 -8
3 -12 -1 -9 -9z"/>
<path d="M5480 5972 c0 -5 7 -15 15 -22 8 -7 15 -8 15 -2 0 5 -7 15 -15 22 -8
7 -15 8 -15 2z"/>
<path d="M5902 5934 c17 -41 28 -52 28 -27 0 12 6 23 13 26 17 6 7 14 -26 22
-27 7 -27 7 -15 -21z"/>
<path d="M6050 5950 c0 -5 5 -10 11 -10 5 0 7 5 4 10 -3 6 -8 10 -11 10 -2 0
-4 -4 -4 -10z"/>
<path d="M5754 5939 c-3 -6 1 -18 10 -28 9 -10 16 -26 16 -37 1 -23 24 -56 33
-47 10 10 8 43 -2 43 -14 0 -22 31 -11 45 7 8 3 15 -15 23 -16 8 -26 8 -31 1z"/>
<path d="M5384 5926 c-10 -27 2 -43 14 -19 8 14 9 24 2 28 -6 3 -13 -1 -16 -9z"/>
<path d="M5534 5905 c-9 -6 -14 -17 -10 -23 9 -14 36 -16 36 -3 0 5 9 11 20
13 18 3 18 4 -5 14 -18 9 -28 9 -41 -1z"/>
<path d="M6100 5891 c0 -14 7 -18 24 -17 20 1 22 4 15 19 -13 23 -39 22 -39
-2z"/>
<path d="M6077 5853 c-13 -12 -7 -43 8 -43 9 0 15 9 15 25 0 24 -10 32 -23 18z"/>
<path d="M5480 5792 c0 -10 23 -41 51 -70 51 -52 77 -66 65 -36 -3 9 -6 18 -6
20 0 2 -7 4 -15 4 -8 0 -12 6 -9 14 3 8 -3 16 -16 19 -17 4 -20 10 -15 28 6
18 4 21 -9 16 -10 -4 -19 -1 -22 8 -8 21 -24 19 -24 -3z"/>
<path d="M6032 5763 c2 -10 14 -19 26 -21 19 -3 23 1 20 15 -2 10 -14 19 -26
21 -19 3 -23 -1 -20 -15z"/>
<path d="M6013 5716 c-26 -12 -27 -15 -13 -36 9 -13 12 -12 25 4 12 16 21 49
13 45 -2 -1 -13 -6 -25 -13z"/>
<path d="M6055 5570 c3 -5 8 -10 11 -10 2 0 4 5 4 10 0 6 -5 10 -11 10 -5 0
-7 -4 -4 -10z"/>
<path d="M6074 4992 c-11 -7 -26 -52 -18 -52 3 0 15 9 26 20 22 20 15 47 -8
32z"/>
<path d="M5773 4913 c4 -3 2 -12 -4 -19 -7 -9 -4 -17 13 -28 12 -9 27 -16 32
-16 5 0 17 -7 26 -15 16 -14 18 -14 23 5 4 16 0 20 -17 20 -27 0 -46 18 -46
42 0 10 -7 18 -17 18 -9 0 -13 -3 -10 -7z"/>
<path d="M5886 4811 c-3 -5 1 -11 9 -15 15 -6 29 7 18 18 -9 9 -21 8 -27 -3z"/>
<path d="M6063 4803 c-18 -7 -16 -23 2 -23 8 0 15 7 15 15 0 8 -1 15 -2 14 -2
0 -9 -3 -15 -6z"/>
<path d="M6140 4764 c0 -9 7 -14 17 -12 25 5 28 28 4 28 -12 0 -21 -6 -21 -16z"/>
<path d="M6208 4685 c-10 -20 -13 -37 -8 -40 6 -4 10 0 10 8 0 7 12 19 26 26
26 12 28 34 3 38 -8 2 -22 -13 -31 -32z"/>
<path d="M1492 4626 c5 -70 11 -94 31 -124 13 -20 48 -77 76 -127 129 -222
258 -421 267 -412 10 10 22 153 13 161 -5 6 -9 20 -9 32 0 26 -54 109 -99 153
-18 17 -31 41 -31 55 0 23 -69 122 -97 139 -7 4 -13 20 -13 35 0 15 -7 39 -16
52 -24 36 -86 100 -108 112 -18 10 -19 6 -14 -76z"/>
<path d="M6264 4589 c-3 -6 -1 -16 5 -22 8 -8 11 -5 11 11 0 24 -5 28 -16 11z"/>
<path d="M1857 3777 c-21 -53 0 -98 39 -83 14 5 13 9 -4 33 -11 16 -21 37 -24
48 -3 19 -4 19 -11 2z"/>
<path d="M1730 3465 c0 -27 30 -75 46 -75 18 0 104 -59 104 -72 0 -4 7 -8 15
-8 8 0 15 -6 15 -14 0 -12 -6 -12 -35 -3 -24 7 -31 13 -23 19 15 9 -9 13 -52
9 -32 -3 -34 -5 -20 -30 8 -16 20 -21 49 -21 47 0 77 -23 88 -68 6 -23 20 -40
50 -58 l42 -25 -13 33 c-8 18 -19 62 -26 98 -6 36 -19 76 -29 90 -9 14 -20 33
-24 43 -4 9 -15 20 -24 24 -10 3 -26 14 -36 25 -10 10 -28 18 -40 18 -12 0
-31 7 -41 15 -26 19 -46 19 -46 0z"/>
<path d="M1740 3092 c0 -11 9 -27 21 -38 17 -16 22 -16 29 -4 7 11 5 16 -5 18
-18 4 -19 14 -3 30 9 9 6 12 -15 12 -20 0 -27 -5 -27 -18z"/>
<path d="M1806 3022 c-8 -13 40 -55 53 -47 6 3 11 9 11 13 0 13 -58 43 -64 34z"/>
<path d="M916 2970 c-5 -21 -2 -148 8 -300 1 -19 -2 -45 -7 -57 -12 -27 -1
-73 17 -73 7 0 21 9 30 19 17 19 17 20 -3 31 -17 9 -21 20 -21 60 0 56 11 68
48 49 63 -31 82 -50 82 -80 0 -16 3 -29 8 -30 4 0 16 -2 27 -5 11 -2 44 -4 73
-5 41 -1 56 -6 65 -20 15 -24 37 -25 31 -1 -5 19 -56 52 -80 52 -20 0 -33 40
-23 68 5 13 9 36 9 51 0 32 -26 101 -38 101 -5 0 -12 11 -18 24 -7 20 -13 22
-31 15 -30 -11 -29 -43 2 -77 30 -32 35 -78 8 -67 -10 4 -30 10 -45 12 -17 3
-28 13 -32 28 -4 14 -15 25 -27 27 -12 2 -25 10 -29 18 -4 8 -12 25 -18 37 -7
13 -12 42 -13 65 0 24 -4 52 -9 63 -7 19 -8 19 -14 -5z"/>
<path d="M1580 2956 c0 -7 8 -20 18 -29 22 -20 92 -34 92 -18 0 6 5 11 11 11
5 0 8 -4 5 -9 -3 -5 1 -14 9 -21 13 -11 18 -10 29 6 12 16 11 20 -11 31 -14 7
-33 13 -42 13 -9 0 -21 4 -26 9 -18 15 -85 21 -85 7z"/>
<path d="M1502 2669 c1 -12 9 -24 16 -27 9 -3 13 3 10 19 -1 12 -9 24 -16 27
-9 3 -13 -3 -10 -19z"/>
<path d="M1102 2529 c2 -6 7 -10 11 -10 4 1 14 1 22 1 8 0 15 5 15 10 0 6 -12
10 -26 10 -14 0 -24 -5 -22 -11z"/>
<path d="M1302 2508 c2 -28 7 -32 26 -30 12 2 22 -1 22 -6 0 -5 9 -12 20 -15
11 -3 24 -17 30 -31 10 -26 24 -33 34 -17 9 14 -37 80 -56 81 -9 0 -25 11 -36
25 -28 35 -44 32 -40 -7z"/>
<path d="M931 2504 c0 -11 3 -14 6 -6 3 7 2 16 -1 19 -3 4 -6 -2 -5 -13z"/>
<path d="M1977 2394 c-14 -19 -24 -23 -44 -18 -23 6 -24 5 -14 -14 6 -11 20
-24 31 -27 11 -3 20 -11 20 -16 0 -5 7 -9 15 -9 25 0 95 39 95 53 0 7 -19 22
-43 34 l-42 20 -18 -23z"/>
<path d="M1485 2400 c-8 -13 13 -40 31 -40 9 0 14 -11 14 -30 0 -25 4 -30 34
-35 47 -9 95 -40 106 -70 5 -14 17 -25 28 -25 10 0 29 -11 42 -25 13 -14 31
-25 39 -25 14 0 -35 52 -114 122 -38 33 -55 55 -55 70 0 9 -7 21 -15 28 -12
10 -16 9 -21 -3 -3 -9 -13 -13 -25 -10 -18 5 -23 15 -20 41 2 15 -35 16 -44 2z"/>
<path d="M2100 2390 c0 -5 5 -10 11 -10 5 0 7 5 4 10 -3 6 -8 10 -11 10 -2 0
-4 -4 -4 -10z"/>
<path d="M2270 2382 c0 -19 38 -48 48 -37 4 4 -2 13 -12 21 -14 10 -16 14 -5
14 12 0 12 2 -1 10 -22 14 -30 12 -30 -8z"/>
<path d="M1725 2360 c-3 -5 -4 -14 0 -19 3 -6 -3 -14 -12 -20 -17 -9 -17 -10
0 -17 22 -8 25 -5 33 34 6 31 -7 45 -21 22z"/>
<path d="M1680 2100 c-8 -5 -23 -11 -32 -14 -24 -7 -23 -23 2 -36 23 -12 54 0
64 26 11 29 -5 41 -34 24z"/>
<path d="M1602 2059 c2 -7 10 -15 17 -17 8 -3 12 1 9 9 -2 7 -10 15 -17 17 -8
3 -12 -1 -9 -9z"/>
<path d="M4817 2029 c8 -8 16 -8 30 0 16 9 14 10 -11 11 -22 0 -27 -3 -19 -11z"/>
<path d="M4900 2009 c0 -5 5 -7 10 -4 6 3 10 8 10 11 0 2 -4 4 -10 4 -5 0 -10
-5 -10 -11z"/>
<path d="M1420 1920 c6 -11 16 -20 22 -20 6 0 3 9 -7 20 -10 11 -20 20 -22 20
-2 0 1 -9 7 -20z"/>
<path d="M1740 1701 c0 -12 5 -21 10 -21 6 0 10 6 10 14 0 8 -4 18 -10 21 -5
3 -10 -3 -10 -14z"/>
<path d="M617 1694 c7 -3 9 -12 6 -20 -6 -17 20 -29 45 -19 15 6 15 8 -6 19
-12 7 -19 15 -16 19 4 4 -4 7 -17 6 -13 0 -19 -3 -12 -5z"/>
<path d="M4522 1501 c-15 -43 -15 -51 2 -51 18 0 24 18 16 55 l-6 30 -12 -34z"/>
<path d="M4476 1464 c-4 -10 -2 -22 3 -27 7 -7 13 -5 17 7 4 10 2 22 -3 27 -7
7 -13 5 -17 -7z"/>
<path d="M4487 1403 c-12 -11 -8 -23 8 -23 8 0 15 7 15 15 0 16 -12 20 -23 8z"/>
<path d="M1535 1380 c-3 -5 -1 -10 4 -10 6 0 11 5 11 10 0 6 -2 10 -4 10 -3 0
-8 -4 -11 -10z"/>
<path d="M4547 1353 c-14 -13 -7 -33 11 -33 26 0 34 11 21 27 -13 14 -22 16
-32 6z"/>
<path d="M1065 1330 c3 -5 8 -10 11 -10 2 0 4 5 4 10 0 6 -5 10 -11 10 -5 0
-7 -4 -4 -10z"/>
<path d="M1238 1263 c12 -8 22 -22 22 -29 0 -16 28 -18 49 -5 12 8 9 12 -15
21 -16 7 -37 16 -46 21 -28 14 -35 9 -10 -8z"/>
<path d="M1760 1252 c0 -14 6 -22 16 -22 14 0 15 3 3 18 -7 9 -15 19 -16 21
-2 2 -3 -5 -3 -17z"/>
<path d="M4357 1249 c8 -8 16 -8 30 0 16 9 14 10 -11 11 -22 0 -27 -3 -19 -11z"/>
<path d="M1271 1096 c-18 -22 2 -26 23 -5 16 16 17 19 4 19 -9 0 -21 -6 -27
-14z"/>
<path d="M4270 1001 c0 -6 5 -13 10 -16 6 -3 10 1 10 9 0 9 -4 16 -10 16 -5 0
-10 -4 -10 -9z"/>
<path d="M4797 1004 c-8 -8 3 -34 14 -34 5 0 9 9 9 20 0 19 -11 26 -23 14z"/>
<path d="M5150 1000 c19 -13 30 -13 30 0 0 6 -10 10 -22 10 -19 0 -20 -2 -8
-10z"/>
<path d="M4438 993 c7 -3 16 -2 19 1 4 3 -2 6 -13 5 -11 0 -14 -3 -6 -6z"/>
<path d="M4341 964 c0 -11 3 -14 6 -6 3 7 2 16 -1 19 -3 4 -6 -2 -5 -13z"/>
<path d="M4430 929 c0 -5 5 -7 10 -4 6 3 10 8 10 11 0 2 -4 4 -10 4 -5 0 -10
-5 -10 -11z"/>
<path d="M5230 809 c0 -12 29 -38 43 -39 15 0 6 30 -12 40 -25 13 -31 13 -31
-1z"/>
<path d="M5040 704 c0 -17 57 -104 68 -104 6 0 12 -4 12 -10 0 -5 5 -10 11
-10 8 0 8 4 2 13 -6 6 -13 24 -17 40 -3 15 -11 27 -16 27 -6 0 -10 9 -10 19 0
10 -7 22 -16 25 -20 8 -34 8 -34 0z"/>
<path d="M4810 561 c0 -6 5 -13 10 -16 6 -3 10 1 10 9 0 9 -4 16 -10 16 -5 0
-10 -4 -10 -9z"/>
<path d="M4845 547 c-4 -10 -3 -23 4 -30 16 -16 23 -3 12 24 -8 22 -10 22 -16
6z"/>
<path d="M4720 520 c0 -5 7 -10 16 -10 8 0 12 5 9 10 -3 6 -10 10 -16 10 -5 0
-9 -4 -9 -10z"/>
<path d="M4530 491 c-19 -11 -44 -28 -54 -40 -15 -16 -22 -18 -27 -9 -4 7 -11
9 -15 6 -12 -13 -23 -93 -13 -102 6 -6 9 -3 9 8 0 9 4 15 10 11 26 -16 -38
-91 -91 -105 -53 -15 -118 -19 -125 -9 -3 5 -16 6 -30 3 -20 -5 -24 -2 -24 15
0 14 -6 20 -17 19 -10 -1 -38 4 -62 11 -31 9 -51 10 -65 3 -35 -17 -66 -21
-66 -9 -1 7 -10 1 -20 -12 -16 -18 -20 -20 -20 -6 0 12 -6 15 -22 10 -25 -7
-62 -22 -90 -36 -10 -5 -25 -9 -34 -9 -9 0 15 -34 62 -85 63 -69 84 -85 107
-85 16 0 65 -9 110 -21 75 -19 90 -20 178 -9 53 6 101 15 106 18 6 4 15 23 21
42 23 79 63 157 101 200 68 77 161 111 202 74 23 -21 16 -38 -43 -101 -27 -29
-57 -71 -68 -95 -11 -24 -27 -54 -37 -67 l-18 -24 45 7 c70 11 200 48 195 56
-2 4 4 16 15 27 10 12 16 23 13 26 -4 5 22 3 56 -2 2 -1 -4 -11 -15 -23 -14
-15 -15 -20 -4 -16 8 3 54 18 103 34 48 15 87 33 87 40 0 16 28 26 32 12 3 -8
17 -5 43 8 41 20 58 44 31 44 -8 0 -20 8 -25 18 -10 16 -11 15 -17 -5 -5 -19
-11 -21 -38 -16 -17 3 -42 15 -55 27 -17 15 -25 17 -28 9 -3 -7 -10 -13 -17
-13 -16 0 -56 42 -56 58 0 7 -5 12 -11 12 -6 0 -8 -7 -5 -16 3 -9 6 -22 6 -29
0 -22 66 -86 82 -80 8 3 21 -1 28 -9 10 -13 10 -17 -3 -22 -9 -3 -24 -1 -36 5
-12 7 -29 8 -43 2 -35 -12 -96 -2 -101 18 -4 14 -5 14 -6 -1 0 -10 -6 -18 -13
-18 -6 0 -20 -8 -32 -17 -12 -11 -9 -3 9 20 37 50 45 127 20 181 -36 75 -146
108 -225 67z m-536 -240 c11 -4 20 -19 22 -34 3 -33 -12 -45 -19 -16 -4 15
-11 20 -25 17 -21 -6 -52 8 -52 22 0 7 19 14 50 18 3 0 14 -3 24 -7z"/>
<path d="M4897 494 c-4 -4 -31 -6 -60 -5 l-52 2 22 -20 c12 -12 29 -21 37 -21
24 0 86 -41 86 -57 0 -8 5 -11 10 -8 8 5 8 11 1 19 -6 7 -8 16 -4 19 3 4 -1
15 -9 24 -9 10 -18 26 -19 36 -2 11 -7 15 -12 11z"/>
<path d="M5068 425 c5 -11 7 -26 5 -32 -3 -7 0 -13 7 -13 6 0 8 -4 5 -10 -11
-18 6 -32 22 -18 9 7 27 13 39 13 38 0 32 20 -6 23 -23 2 -43 12 -58 30 -16
18 -21 20 -14 7z"/>
<path d="M5211 380 c-8 -24 -7 -30 5 -30 9 0 14 10 14 30 0 17 -2 30 -4 30 -2
0 -9 -13 -15 -30z"/>
<path d="M4129 334 c-73 -17 -73 -26 1 -19 103 10 131 15 125 25 -7 12 -57 9
-126 -6z"/>
</g>
</svg>
